<?xml version="1.0" encoding="UTF-8" standalone="no"?><!DOCTYPE svg PUBLIC "-//W3C//DTD SVG 1.1//EN" "http://www.w3.org/Graphics/SVG/1.1/DTD/svg11.dtd"><svg width="100%" height="100%" viewBox="0 0 3754 3280" version="1.1" xmlns="http://www.w3.org/2000/svg" xmlns:xlink="http://www.w3.org/1999/xlink" xml:space="preserve" xmlns:serif="http://www.serif.com/" style="fill-rule:evenodd;clip-rule:evenodd;stroke-miterlimit:10;"><rect x="3181.79" y="1179.17" width="216.667" height="112.5" style="fill:#6c63ff;fill-opacity:0.2;"/><rect x="3198.46" y="1316.67" width="216.667" height="112.5" style="fill:#6c63ff;fill-opacity:0.2;"/><rect x="3019.29" y="362.5" width="216.667" height="112.5" style="fill:#6c63ff;fill-opacity:0.2;"/><rect x="3173.46" y="491.667" width="216.667" height="112.5" style="fill:#6c63ff;fill-opacity:0.2;"/><rect x="2756.79" y="370.833" width="216.667" height="112.5" style="fill:#6c63ff;fill-opacity:0.2;"/><rect x="3452.63" y="620.833" width="216.667" height="112.5" style="fill:#6c63ff;fill-opacity:0.2;"/><rect x="3190.13" y="629.167" width="216.667" height="112.5" style="fill:#6c63ff;fill-opacity:0.2;"/><rect x="2910.96" y="500" width="216.667" height="112.5" style="fill:#6c63ff;fill-opacity:0.2;"/><rect x="3440.13" y="1487.5" width="216.667" height="112.5" style="fill:#6c63ff;fill-opacity:0.2;"/><rect x="3177.63" y="1495.83" width="216.667" height="112.5" style="fill:#6c63ff;fill-opacity:0.2;"/><path d="M544.792,1150c0,0 305.375,305.375 133,758.333c-172.375,452.959 295.458,1206.83 295.458,1206.83c0,0 -5,-0.75 -14.292,-2.375c-627.166,-110.709 -938.791,-828 -589.875,-1360.71c129.5,-198.291 235.917,-430.666 175.709,-602.083Z" style="fill:#6c63ff;fill-rule:nonzero;"/><path d="M544.792,1150c0,0 172.375,374.333 0,679.667c-172.375,305.333 -29.542,1162.5 428.5,1285.5" style="fill:none;fill-rule:nonzero;stroke:#535461;stroke-width:8.33px;"/><path d="M0.875,2385.08c0,0 348.458,-55.5 380.208,256.792c31.75,312.292 670.084,355.583 670.084,355.583c0,0 -4.167,2.834 -11.959,7.959c-527.041,345.833 -1030.83,220.375 -954.875,-239c28.209,-170.792 25.875,-342.334 -83.458,-381.334Z" style="fill:#6c63ff;fill-rule:nonzero;"/><path d="M0.875,2385.08c0,0 348.458,-55.5 380.208,256.792c31.75,312.292 670.084,355.583 670.084,355.583c0,0 -4.167,2.834 -11.959,7.959c-527.041,345.833 -1030.83,220.375 -954.875,-239c28.209,-170.792 25.875,-342.334 -83.458,-381.334Z" style="fill:#f5f5f5;fill-opacity:0.2;fill-rule:nonzero;"/><path d="M0.875,2385.08c0,0 270.458,59.375 248.25,305.292c-22.208,245.917 401.667,540.875 802.042,307.083" style="fill:none;fill-rule:nonzero;stroke:#535461;stroke-width:8.33px;"/><rect x="2.625" y="1183.33" width="216.667" height="112.5" style="fill:#6c63ff;fill-opacity:0.2;"/><rect x="156.792" y="1312.5" width="216.667" height="112.5" style="fill:#6c63ff;fill-opacity:0.2;"/><rect x="1327.63" y="0" width="216.667" height="112.5" style="fill:#6c63ff;fill-opacity:0.2;"/><rect x="3035.96" y="2075" width="216.667" height="112.5" style="fill:#6c63ff;fill-opacity:0.2;"/><rect x="173.458" y="1450" width="216.667" height="112.5" style="fill:#6c63ff;fill-opacity:0.2;"/><rect x="1481.79" y="129.167" width="216.667" height="112.5" style="fill:#6c63ff;fill-opacity:0.2;"/><rect x="690.125" y="891.667" width="216.667" height="112.5" style="fill:#6c63ff;fill-opacity:0.2;"/><rect x="844.292" y="1020.83" width="216.667" height="112.5" style="fill:#6c63ff;fill-opacity:0.2;"/><rect x="1256.79" y="950" width="216.667" height="112.5" style="fill:#6c63ff;fill-opacity:0.2;"/><rect x="860.958" y="1158.33" width="216.667" height="112.5" style="fill:#6c63ff;fill-opacity:0.2;"/><rect x="3327.63" y="2075" width="216.667" height="112.5" style="fill:#6c63ff;fill-opacity:0.2;"/><path d="M1870.92,972.042c0,0 75,391.958 0,497.666c-75,105.709 229.166,147.542 229.166,147.542l314.834,-114.5l44.041,-281.875c0,0 -191.666,-107.917 -151.958,-325.917l-436.083,77.084Z" style="fill:#f7c4a7;fill-rule:nonzero;"/><path d="M2800.17,2293.29c0,0 19.833,85.875 -88.084,101.291c-63.719,9.374 -128.522,8.6 -192,-2.291l-23.791,-215.709l251.041,0l52.834,116.709Z" style="fill:#f7c4a7;fill-rule:nonzero;"/><path d="M894.583,2183.38c0,0 -47.666,193.708 60.25,211.208c107.917,17.5 504.167,17.625 504.167,17.625l0,-229.166l-179.417,38.333l-168.416,-161.5l-216.584,123.5Z" style="fill:#f7c4a7;fill-rule:nonzero;"/><path d="M1894.08,1098.67l-421.708,89.166c0,0 -160.75,6.625 -264.25,220.209c-103.5,213.583 -328.125,823.583 -328.125,823.583c0,0 191.667,-193.792 416.208,13.208l149.75,-270.833l-33.041,429.417l1160.33,0l0,-202.625c0,0 242.208,129.916 224.625,202.583c0,0 207.292,-534.083 162.5,-776.792c-13.484,-75.032 -21.753,-150.908 -24.75,-227.083c-5.407,-128.249 -91.443,-239.889 -214.083,-277.792c-21.834,-6.708 -45.834,-13 -72.5,-18.625c-248.834,-52.833 -312.5,0 -312.5,0c0,0 -48.209,156.834 -47.334,227.917c1.084,91.375 -129.916,151.958 -129.916,151.958c0,0 -193.792,-46.25 -202.584,-83.666c-8.791,-37.417 -78.125,-256.584 -62.625,-300.625Z" style="fill-opacity:0.1;fill-rule:nonzero;"/><path d="M1894.08,1089.88l-421.708,89.167c0,0 -160.75,6.625 -264.25,220.208c-103.5,213.583 -328.167,823.667 -328.167,823.667c0,0 191.667,-193.792 416.209,13.208l149.75,-270.833l-33.042,429.291l1160.38,0l0,-202.583c0,0 242.208,129.917 224.625,202.583c0,0 207.292,-534.083 162.5,-776.791c-13.484,-75.032 -21.753,-150.909 -24.75,-227.084c-5.407,-128.249 -91.443,-239.889 -214.083,-277.791c-21.834,-6.709 -45.834,-13 -72.5,-18.625c-248.834,-52.834 -312.5,0 -312.5,0c0,0 -48.209,156.833 -47.334,227.916c1.084,91.375 -129.916,151.959 -129.916,151.959c0,0 -193.792,-46.25 -202.584,-83.667c-8.791,-37.417 -78.125,-256.583 -62.625,-300.625Z" style="fill:#6f6655;fill-rule:nonzero;"/><path d="M2012.73,1304.26l226.291,-32.915l61.716,213.948l-308.579,74.059l-123.431,-119.317l144.003,-135.775Z" style="fill:#6f6655;"/><path d="M2325,1071.17c-17.713,-50.148 -21.684,-104.134 -11.5,-156.334l-436.083,77.042c0,0 6.291,32.958 13.416,82.333c56.413,58.538 134.301,91.647 215.597,91.647c82.75,0 161.906,-34.305 218.487,-94.688l0.083,0Z" style="fill-opacity:0.1;fill-rule:nonzero;"/><path d="M2399.38,807.654c-0.713,185.169 -135.689,337.084 -299.497,337.084c-161.073,0 -294.778,-146.884 -299.378,-328.889l0,-8.195c-0.028,-129.117 65.28,-247.467 167.875,-304.222c8.972,-4.961 18.194,-9.42 27.667,-13.376c49.262,-20.471 102.409,-26.057 154.166,-16.203c136.094,26.196 239.339,155.613 248.375,311.334c0.528,7.442 0.792,14.931 0.792,22.467Z" style="fill:#f7c4a7;fill-rule:nonzero;"/><g opacity="0.1"><path d="M2018.76,505.215l0.416,-0.25c-9.472,3.5 -18.694,7.444 -27.666,11.833c-102.596,50.208 -167.903,154.904 -167.875,269.125l0,7.25c9.31,-0.251 18.466,-2.452 26.875,-6.458c73,-34.083 116.666,-138.333 134,-211.042c6.25,-26.041 12.125,-55.375 34.25,-70.458Z" style="fill-rule:nonzero;"/><path d="M2218.97,493.405c-26.605,-15.304 -54.704,-26.152 -83.572,-32.265c23.671,6.819 44.821,23.456 60.002,47.197c7.441,12.671 13.614,26.438 18.379,40.99c-90.484,-49.538 -193.934,-46.859 -282.705,7.32c21.092,57.913 86.518,89.476 130.199,110.615c47.826,23.11 96.152,44.25 144.977,63.418l-43.213,-43.919l97.602,19.442c1.051,-24.322 -1.259,-48.689 -6.827,-72.026c18.706,18.855 43.493,25.18 63.789,40.99c38.022,30.04 53.876,87.836 74.594,137.903c5.471,13.234 11.925,26.761 21.793,35.134c-8.116,-153.883 -83.124,-290.346 -195.018,-354.799Z" style="fill-rule:nonzero;"/></g><path d="M2018.76,452.079l0.416,-0.25c-9.472,3.5 -18.694,7.444 -27.666,11.833c-102.596,50.207 -167.903,154.903 -167.875,269.125l0,7.25c9.31,-0.252 18.466,-2.452 26.875,-6.458c73,-34.084 116.666,-138.334 134,-211.042c6.25,-25.875 12.125,-55.333 34.25,-70.458Z" style="fill-rule:nonzero;"/><path d="M2192.23,453.565c-23.704,-16.47 -48.739,-28.145 -74.459,-34.724c21.09,7.34 39.933,25.244 53.459,50.794c6.63,13.637 12.129,28.452 16.375,44.113c-80.617,-53.312 -172.785,-50.43 -251.875,7.878c18.791,62.325 77.083,96.293 116,119.043c42.611,24.871 85.666,47.621 129.166,68.249l-38.5,-47.264l86.959,20.922c0.935,-26.174 -1.123,-52.397 -6.084,-77.513c16.667,20.292 38.75,27.098 56.834,44.113c33.875,32.329 48,94.529 66.458,148.41c4.875,14.243 10.625,28.8 19.417,37.812c-7.231,-165.609 -74.059,-312.469 -173.75,-381.833Z" style="fill-rule:nonzero;"/><path d="M1513.04,1616.17c0,0 -66.042,176.166 26.416,334.708c92.459,158.542 -81.458,224.625 -81.458,224.625" style="fill-opacity:0.1;fill-rule:nonzero;"/><path d="M2583.25,1457.63c0,0 114.5,145.333 39.625,275.25c-74.875,129.917 -70.458,442.625 -70.458,442.625" style="fill-opacity:0.1;fill-rule:nonzero;"/><path d="M1411.75,2305.42l1272.79,0c57.99,0 105.708,47.718 105.708,105.708l-1484.17,0c0,-57.974 47.693,-105.685 105.667,-105.708Z" style="fill:#8385a3;fill-rule:nonzero;"/><path d="M1541.25,1578.71l1013.83,0c89.145,0 162.5,73.355 162.5,162.5l0,588.417l-1338.83,0l0,-588.417c0,-89.145 73.355,-162.5 162.5,-162.5Z" style="fill:#999cc5;fill-rule:nonzero;"/><path d="M1876.86,635.171c0,0 8.601,51.035 -13.389,111.534c0,0 -15.705,90.384 -6.94,129.171l-8.763,16.247l-42.167,-55.003l-26.458,-35.32c0,0 -8.107,-115.294 -24.642,-115.012l12.152,-54.064c0,0 -52.302,-65.037 80.967,-223.328c0,0 32.738,-31.102 93.919,-36.273l14.551,-4.651c0,0 -14.223,-61.119 64.486,-57.508c0,0 195.116,-19.837 286.726,87.842l38.528,35.528c0,0 88.797,54.482 95.248,113.396l-2.808,56.869l8.105,74.02l-14.877,139.213l-10.915,-44.667l-17.029,64.542c0,0 -26.288,76.257 -46.626,83.07c0,0 19.18,-17.387 -3.479,-155.547l-11.907,-53.73l-24.143,-41.689c0,0 4.298,-29.516 -0.498,-45.807c0,0 -26.626,-91.864 -163.539,-118.147c-136.914,-26.283 -176.597,10.165 -202.391,35.92c-25.795,25.755 -74.111,93.394 -74.111,93.394Z"/><rect x="2418.17" y="598.208" width="30.417" height="172.458" style="fill:#6a5c99;"/><path d="M2377.58,709.792c57.51,0 104.834,47.323 104.834,104.833l0,6.75c0,57.51 -47.324,104.833 -104.834,104.833l0,-216.416Z" style="fill:#464646;fill-rule:nonzero;"/><path d="M2404.63,723.333c0,-13.062 -10.605,-23.666 -23.667,-23.666c-13.062,0 -23.666,10.604 -23.666,23.666l0,189.375c0,13.062 10.604,23.667 23.666,23.667c13.062,0 23.667,-10.605 23.667,-23.667l0,-189.375Z" style="fill:#6a5c99;"/><rect x="1745.92" y="601.583" width="30.417" height="172.458" style="fill:#6a5c99;"/><path d="M1816.92,929.583c-57.51,0 -104.834,-47.323 -104.834,-104.833l0,-6.75c0,-57.51 47.324,-104.833 104.834,-104.833l0,216.416Z" style="fill:#464646;fill-rule:nonzero;"/><path d="M1789.88,916.042c0,13.062 10.605,23.666 23.667,23.666c13.062,0 23.666,-10.604 23.666,-23.666l0,-189.375c0,-13.062 -10.604,-23.667 -23.666,-23.667c-13.062,0 -23.667,10.605 -23.667,23.667l0,189.375Z" style="fill:#6a5c99;"/><path d="M2422.57,430.309c-37.1,-78.186 -117.903,-172.725 -292.075,-180.292l0,-0.229l-2.1,0l-61.709,2.967l0,0.304c-173.009,8.062 -253.436,102.258 -290.424,180.178c-24.633,52.822 -37.712,110.423 -38.338,168.846l21.307,-0.532l21.308,-0.494c0.919,-52.014 12.721,-103.243 34.624,-150.289c46.966,-97.809 133.395,-149.793 256.85,-154.623l54.581,-3.08c123.53,4.791 209.996,56.852 256.925,154.623c21.939,47.063 33.767,98.319 34.699,150.364l21.308,0.495l21.307,0.532c-0.613,-58.392 -13.666,-115.966 -38.263,-168.77Z" style="fill:#464646;fill-rule:nonzero;"/><rect x="309.5" y="2412.5" width="3227.96" height="866.667" style="fill:#d6d6e3;"/><rect x="309.5" y="2470.83" width="3227.96" height="112.5" style="fill-opacity:0.1;"/><rect x="92.958" y="2400" width="3660.96" height="112.5" style="fill:#d6d6e3;"/><path d="M1884.55,1081.63l198.125,177.375c0,0 -119.318,131.66 -115.203,181.033c4.114,49.372 -135.775,-345.609 -135.775,-345.609l52.853,-12.799Z" style="fill:#fff;"/><path d="M2317.2,1049.17l41.144,57.601c0,0 -37.03,259.207 -106.974,308.579c0,0 -28.801,-148.118 -119.318,-152.232l185.148,-213.948Z" style="fill:#fff;"/><path d="M2041.53,1250.77l123.431,-8.229l61.716,45.258l-90.516,65.83l-127.546,-32.915l32.915,-69.944Z" style="fill:#fff;"/><path d="M2033.67,1865.3c8.273,-0.024 16.546,-0.004 24.818,-0.01c-1.899,1.875 -3.668,3.875 -5.577,5.741c-5.745,0.033 -11.495,0.005 -17.24,0.014l0,14.027l14.147,0l0,-4.316l-5.333,0c-1.76,-1.755 -3.52,-3.51 -5.27,-5.27c6.129,-0.01 12.263,0 18.396,-0.005c0,3.213 -0.005,6.426 0.005,9.64c-1.607,1.625 -3.237,3.227 -4.829,4.862c-0.437,0.37 -0.83,0.988 -1.497,0.84c-5.87,0.01 -11.745,0.004 -17.614,0c-1.823,-1.938 -3.813,-3.707 -5.673,-5.597c-0.274,-4.642 -0.092,-9.356 -0.087,-14.023c1.76,-2.1 3.879,-3.894 5.754,-5.903Zm-18.703,8.997c3.113,-0.983 6.215,-2.005 9.376,-2.825c-0.705,1.563 -1.415,3.127 -2.115,4.695c-2.125,0.652 -4.245,1.305 -6.374,1.938c-0.009,3.208 0.139,6.411 0.144,9.62c1.712,-0.542 3.434,-1.051 5.165,-1.544c0,-0.969 -0.005,-1.938 0.005,-2.902c-0.681,0.173 -1.357,0.346 -2.034,0.518c-0.681,-1.026 -1.357,-2.058 -1.995,-3.103c2.273,-0.715 4.571,-1.371 6.872,-2.014c0.111,2.278 0.255,4.561 0.101,6.839c-0.513,1.568 -1.333,3.011 -1.985,4.527c-2.293,0.628 -4.571,1.314 -6.839,2.023c-0.714,-1.193 -1.784,-2.215 -2.254,-3.529c0.005,-3.19 -0.302,-6.388 -0.081,-9.572c0.542,-1.607 1.328,-3.122 2.014,-4.671Zm48.912,-1.238c3.774,0.835 7.467,2.015 11.169,3.113c-0.892,0.782 -1.823,1.515 -2.738,2.268c-2.149,-0.556 -4.259,-1.237 -6.413,-1.769c-0.343,0.488 -0.68,0.98 -1.011,1.477c0.288,0.59 0.575,1.184 0.868,1.779c2.297,0.701 4.604,1.347 6.892,2.086c0.561,1.971 1.4,3.88 1.731,5.909c-0.518,1.414 -1.228,2.753 -1.837,4.129c-3.693,-1.061 -7.448,-1.895 -11.179,-2.806c0.763,-1.012 1.54,-2.014 2.321,-3.016c2.207,0.546 4.417,1.093 6.604,1.727c0.163,-0.284 0.489,-0.854 0.652,-1.137c-0.258,-0.676 -0.527,-1.348 -0.782,-2.015c-2.186,-0.71 -4.387,-1.367 -6.608,-1.947c-0.791,-1.812 -1.592,-3.625 -2.364,-5.448c0.915,-1.439 1.841,-2.872 2.695,-4.35Zm-55.655,2.978c0.816,-0.244 1.645,-0.484 2.465,-0.728c0.327,5.869 0.106,11.758 0.437,17.633c-0.686,0.178 -1.367,0.36 -2.038,0.533c-1.856,-2.801 -3.88,-5.487 -5.721,-8.297c0.096,3.319 -0.005,6.638 0.187,9.951c-0.868,1.3 -1.641,2.657 -2.518,3.942c-0.144,-6.791 -0.178,-13.582 -0.398,-20.367c0.618,-0.24 1.237,-0.475 1.861,-0.71c1.99,2.676 3.846,5.453 5.817,8.144c0.134,-3.372 -0.178,-6.734 -0.092,-10.101Zm68.368,0.566c3.865,1.238 7.697,2.581 11.467,4.091c-0.95,0.691 -1.899,1.381 -2.844,2.072c-1.89,-0.662 -3.764,-1.367 -5.664,-2c-0.106,1.166 -0.173,2.336 -0.268,3.501c2.541,0.902 5.078,1.827 7.582,2.844c-1.137,0.748 -2.092,1.832 -3.362,2.316c-1.497,-0.426 -2.921,-1.079 -4.407,-1.539c-0.068,0.954 -0.13,1.904 -0.154,2.858c2.618,0.734 5.151,1.746 7.731,2.604c-1.343,0.738 -2.561,2.84 -4.283,1.976c-2.23,-0.748 -4.479,-1.439 -6.738,-2.105c0.278,-5.539 0.657,-11.078 0.94,-16.618Zm-80.731,4.024c0.919,-0.365 1.842,-0.722 2.767,-1.07c-0.01,5.808 0.288,11.606 0.23,17.409c-0.882,1.281 -1.726,2.59 -2.623,3.861c-0.053,-6.733 -0.168,-13.471 -0.374,-20.2Zm94.03,0.671c2.94,1.113 5.783,2.489 8.589,3.909c0.431,1.698 0.872,3.391 1.323,5.088c-0.618,0.93 -1.218,1.866 -1.822,2.801c0.542,1.031 1.203,2.004 1.644,3.088c0.044,1.79 -0.172,3.568 -0.196,5.357c-0.844,-0.403 -1.688,-0.791 -2.527,-1.189c0.062,-1.631 0.657,-3.443 -0.446,-4.873c-0.667,-1.904 -2.806,-2.225 -4.403,-3.016c-0.168,1.813 -0.11,3.63 -0.197,5.443c-0.685,1.29 -1.798,2.287 -2.666,3.458c0.197,-6.69 0.542,-13.376 0.701,-20.066m2.388,4.182c-0.009,1.113 -0.091,2.221 -0.12,3.333c1.367,0.878 2.95,1.376 4.431,2.048c0.173,-0.628 0.72,-1.227 0.475,-1.909c-0.321,-2.311 -3.098,-2.527 -4.786,-3.472Zm-101.358,-2.662c0.902,-0.407 1.809,-0.81 2.729,-1.179c0.12,5.673 0.12,11.347 0.322,17.02c-0.852,0.355 -1.703,0.715 -2.551,1.079c0.024,-3.463 0.062,-6.935 -0.303,-10.383c-0.532,3.228 -1.64,6.321 -2.416,9.491c-0.533,0.264 -1.064,0.531 -1.593,0.801c-0.964,-2.182 -1.769,-4.436 -2.844,-6.566c-0.192,3.372 0.35,6.758 -0.014,10.119c-0.652,1.338 -1.453,2.605 -2.167,3.909c-0.197,-6.412 -0.288,-12.833 -0.332,-19.245c0.696,-0.739 1.746,-1.075 2.605,-1.612c1.193,2.619 2.311,5.276 3.366,7.952c1.232,-3.746 2.081,-7.606 3.198,-11.386Zm111.199,4.226c0.867,0.45 1.736,0.897 2.618,1.333c-0.038,5.083 -0.465,10.157 -0.484,15.241c-0.913,0.805 -1.879,1.546 -2.892,2.22c0.206,-6.263 0.413,-12.536 0.758,-18.794Zm-130.223,6.023c1.827,-1.371 3.813,-2.522 5.76,-3.712c0.724,1.233 2.11,2.288 1.913,3.866c-0.086,3.817 0.173,7.625 0.125,11.442c-0.796,0.446 -1.597,0.883 -2.388,1.333c-0.029,-1.529 -0.135,-3.054 -0.173,-4.58c-1.53,0.893 -3.069,1.77 -4.556,2.734c0.086,1.477 0.283,2.969 0.082,4.441c-0.624,1.496 -1.525,2.858 -2.336,4.254c0.024,-4.954 -0.192,-9.908 -0.206,-14.853c0.445,-1.678 0.997,-3.376 1.779,-4.925m0.552,3.362c0.057,1.328 0.148,2.652 0.177,3.985c1.482,-0.978 3.011,-1.884 4.546,-2.777c-0.125,-1.366 -0.148,-2.738 -0.139,-4.11c-1.539,0.955 -3.083,1.895 -4.584,2.902Zm134.697,-6.858c3.333,1.472 6.56,3.17 9.793,4.853c-1.075,0.504 -2.096,1.286 -3.276,1.434c-1.41,-0.604 -2.748,-1.357 -4.12,-2.034c-0.081,1.037 -0.144,2.077 -0.158,3.123c2.211,0.877 4.316,2 6.532,2.878c-1.19,0.695 -2.393,1.366 -3.621,1.985c-0.992,-0.485 -2.005,-0.926 -3.011,-1.362c-0.053,0.782 -0.092,1.568 -0.126,2.35c2.255,0.969 4.513,1.956 6.691,3.093c-1.065,0.532 -2.129,1.06 -3.194,1.597c-2.019,-0.936 -4.077,-1.775 -6.139,-2.604c0.288,-5.103 0.408,-10.21 0.629,-15.313Zm11.807,5.649c2.59,1.381 5.17,2.801 7.649,4.379c-0.844,0.508 -1.674,1.031 -2.499,1.558c-1.352,-0.738 -2.661,-1.558 -4.072,-2.186c-0.191,0.844 -0.076,1.702 0.159,2.527c1.861,0.796 3.698,1.645 5.496,2.57c0.302,1.544 0.648,3.084 0.978,4.628c-0.647,1.295 -1.29,2.585 -1.946,3.875c-2.542,-1.309 -5.151,-2.479 -7.727,-3.712c0.907,-0.609 1.818,-1.213 2.753,-1.784c1.473,0.696 2.936,1.419 4.403,2.129c0.282,-0.82 0.081,-1.644 -0.12,-2.445c-1.837,-0.935 -3.726,-1.77 -5.611,-2.595c-0.369,-1.395 -0.82,-2.776 -1.07,-4.201c0.413,-1.621 1.113,-3.15 1.607,-4.743Zm-157.429,4.642c2.134,-1.75 4.59,-3.092 6.949,-4.526c-0.859,1.793 -0.725,4.431 -2.744,5.404c-1.203,0.71 -2.379,1.473 -3.558,2.221c-0.01,2.776 0.245,5.549 0.086,8.325c1.242,-0.777 2.566,-1.424 3.774,-2.254c0.049,-0.804 0.038,-1.61 -0.033,-2.412c-0.345,0.177 -1.036,0.542 -1.387,0.724c-0.512,-0.805 -1.03,-1.607 -1.539,-2.407c1.717,-1.065 3.434,-2.134 5.218,-3.088c-0.043,2.085 0.082,4.176 -0.048,6.263c-0.34,1.467 -0.974,2.848 -1.439,4.282c-1.717,0.906 -3.38,1.904 -5.083,2.839c-0.604,-1.074 -1.669,-2.024 -1.621,-3.343c-0.125,-2.548 -0.134,-5.1 -0.029,-7.649c0.375,-1.491 0.859,-2.964 1.454,-4.379Zm78.228,0.893c0.882,0.767 1.553,1.731 2.282,2.637c5.026,6.1 11.232,11.328 18.425,14.685c2.245,1.064 4.624,1.942 7.122,2.124c1.986,0.168 3.769,-1.117 5.764,-0.91c1.669,0.153 3.338,0.805 4.609,1.918c0.676,1.812 0.791,3.937 2.254,5.366c1.093,1.3 2.916,1.271 4.446,0.983c0.364,1.036 0.867,2.297 2.124,2.461c1.175,0.028 2.24,-0.653 3.367,-0.946c0.738,1.032 1.227,2.384 2.493,2.897c2.475,1.19 4.418,3.348 5.545,5.832c-1.449,-1.607 -2.936,-3.242 -4.95,-4.149c-0.057,3.123 0.37,6.782 -1.97,9.251c-0.087,-1.98 -0.289,-3.98 -1.156,-5.788c-1.785,1.458 -3.468,3.271 -5.832,3.717c0.719,-0.979 1.765,-1.803 2.091,-3.021c0.182,-0.94 -0.926,-1.104 -1.583,-1.248c-2.786,-0.431 -5.16,1.348 -7.361,2.768c-0.345,-0.984 -0.696,-1.962 -1.031,-2.945c-1.42,0.447 -3.065,0.748 -4.028,2c-0.59,1.093 0.551,1.99 1.409,2.436c1.468,0.835 3.204,0.221 4.782,0.561c1.021,0.24 1.645,1.161 2.311,1.899c0.039,-0.752 0.092,-1.501 0.159,-2.248c1.827,2.023 3.352,4.301 4.733,6.651c1.78,-0.844 2.71,-2.604 2.566,-4.561c0.719,1.29 0.753,2.772 0.705,4.211c0.437,-0.534 0.896,-1.049 1.377,-1.544c0.23,2.158 0.273,4.475 -0.734,6.46c-0.806,1.539 -2.312,2.56 -3.918,3.131c0.345,-1.265 1.088,-3.318 -0.658,-3.87c-3.04,-0.589 -6.009,0.715 -9.02,0.955c1.702,-0.955 3.668,-1.813 4.685,-3.583c-0.072,-0.216 -0.225,-0.652 -0.298,-0.868c-1.606,-0.988 -3.505,-1.405 -5.246,-2.11c-1.017,-0.499 -1.966,0.235 -2.892,0.576c-1.74,-0.969 -3.937,-1.127 -5.678,-0.072c-4.345,2.997 -11.687,-1.315 -10.56,-6.671c0.772,-2.911 3.913,-3.928 6.34,-5.083c-2.221,-0.485 -4.825,-0.082 -6.393,1.683c-1.285,1.343 -1.765,3.194 -2.086,4.968c-8.297,-2.461 -17.216,-2.892 -25.715,-1.29c-8.286,1.54 -16.171,5.65 -21.782,11.994c-5.74,6.412 -9.236,14.589 -10.977,22.953c-2.096,10.004 -0.523,20.675 4.206,29.724c1.204,2.508 2.8,4.786 4.258,7.15c-7.016,-5.73 -11.806,-13.749 -15.029,-22.122c-1.037,1.199 -0.955,2.844 -1.19,4.316c-2.278,-3.487 -1.923,-7.89 -1.29,-11.807c1.367,-7.137 3.779,-14.033 6.724,-20.661c-2.455,1.43 -4.254,3.665 -6.273,5.602c-0.081,-7.155 4.076,-13.303 8.344,-18.679c2.619,-3.309 5.722,-6.182 8.734,-9.127c-2.446,0.662 -4.724,1.784 -7.093,2.662c4.934,-5.098 11.389,-8.526 18.037,-10.857c6.479,-2.182 13.299,-3.405 20.137,-3.582c-3.669,-0.84 -7.409,-1.507 -11.179,-1.626l-0.671,0.47c-0.015,-0.269 -0.049,-0.59 0.292,-0.657c6.954,-1.722 14.263,-2.134 20.953,-4.853c1.631,-0.648 3.141,-1.574 4.503,-2.676c2.863,1.937 5.851,4.306 9.486,4.278c-5.659,-4.542 -11.347,-9.275 -15.37,-15.394c-1.358,-1.974 -2.658,-4.041 -3.3,-6.371m31.68,23.134c1.477,1.981 3.295,4.278 6.095,3.923c-0.369,-1.002 -0.503,-2.225 -1.405,-2.916c-1.554,-0.383 -3.16,-0.537 -4.69,-1.007Z" style="fill:#e0e2ff;fill-rule:nonzero;"/><path d="M2033.82,1909.59c4.642,2.465 8.877,5.673 13.692,7.851c-1.166,0.94 -2.642,2.652 -4.259,1.573c-3.755,-2.432 -6.67,-5.957 -9.433,-9.424Zm-55.011,21.24c3.702,-1.338 8.258,1.64 8.368,5.602c-0.379,0.038 -1.137,0.11 -1.515,0.148c-0.182,2.945 1.15,5.755 2.704,8.172c0.178,-2.661 -0.292,-5.491 1.046,-7.936c0.897,0.043 1.746,0.297 2.517,0.767c1.041,-0.638 0.811,-2.038 0.193,-2.902c-0.705,-0.949 -1.593,-1.736 -2.317,-2.661c1.856,1.127 3.751,2.402 4.945,4.263c0.705,1.252 0.878,3.132 -0.255,4.196c-0.748,0.82 -2.354,-0.038 -2.824,1.147c-0.849,1.698 -0.542,3.726 0.187,5.414c1.827,-0.365 3.112,-1.779 4.777,-2.489c-3.242,3.342 -6.326,6.934 -8.144,11.279c-0.029,-1.294 0.595,-2.844 -0.311,-3.956c-1.737,-1.597 -4.345,-1.477 -6.239,-2.801c-1.108,-0.806 -1.732,-2.062 -2.648,-3.04c-0.753,-0.754 -2.23,-0.442 -2.733,-1.454c-0.23,-1.683 -0.063,-3.716 -1.472,-4.949c-1.497,-1.208 -3.568,-0.973 -5.367,-1.136c2.964,-1.583 6.872,-0.754 9.073,1.736c1.041,1.165 0.912,3.035 2.226,4.004c1.362,0.95 2.795,1.909 4.445,2.282c0.389,-2.335 -1.793,-3.74 -2.498,-5.74c-0.83,-2.062 -1.228,-4.57 -0.062,-6.584c0.244,-0.657 0.997,-1.496 0.182,-2.053c-1.181,-1.007 -2.854,-0.944 -4.278,-1.309Zm43.549,13.611c0.479,-0.184 0.967,-0.341 1.463,-0.47c-3.544,3.246 -6.09,7.347 -8.906,11.198c-0.954,1.41 -2.201,2.911 -1.885,4.747c0.034,0.566 0.265,1.612 1.061,1.195c1.75,-0.916 2.728,-2.729 3.965,-4.192c0.844,2.729 3.42,4.345 5.976,5.242c4.364,1.621 9.088,1.045 13.591,0.485c8.623,-1.209 17.466,-3.387 24.616,-8.585c1.971,-1.319 3.314,-3.328 5.17,-4.767c-0.47,2.187 -2.062,3.87 -3.534,5.453c-5.074,4.949 -11.798,7.807 -18.56,9.62c-6.493,1.698 -13.207,2.422 -19.902,2.638c-1.559,0.158 -3.309,0.234 -4.57,1.28c-0.854,0.671 -0.062,1.741 0.594,2.206c2.355,1.693 5.021,2.945 7.774,3.856c6.849,2.364 14.311,1.323 21.116,-0.647c4.681,-1.329 9.021,-3.554 13.361,-5.693c-5.27,4.882 -12.196,7.649 -19.183,8.949c-9.476,1.606 -19.308,0.244 -28.281,-3.055c-0.973,-0.302 -2.474,-0.566 -3.021,0.556c-0.719,1.741 0.806,3.251 1.487,4.729c2.69,5.285 6.229,10.436 11.428,13.514c2,1.252 4.269,1.947 6.523,2.576c-3.775,0.124 -7.309,-1.539 -10.517,-3.348c-6.479,-3.793 -10.738,-10.383 -13.41,-17.24c0.49,9.078 6.211,16.914 12.81,22.741c0.034,1.031 -1.204,1.045 -1.933,1.299c-3.016,0.782 -6.608,0.739 -8.948,3.051c-2.048,3.476 -2.058,7.826 -4.297,11.227c-4.043,-7.036 -6.599,-14.886 -7.793,-22.9c-1.492,-10.402 0.618,-21.322 6.22,-30.247c4.191,-6.714 10.43,-12.071 17.585,-15.418Z" style="fill:#e0e2ff;fill-rule:nonzero;"/><path d="M2064.03,1961.63c2.326,-1.286 4.307,-3.065 6.465,-4.595c-0.547,1.429 -1.827,2.355 -2.906,3.367c-9.582,8.623 -22.838,12.123 -35.512,11.864c-2.351,-0.167 -5.031,-0.201 -6.902,-1.836c-0.412,-1.228 1.267,-1.377 2.077,-1.324c12.569,0.571 25.767,-0.959 36.778,-7.476Zm-4.656,13.13c4.435,-0.379 9.073,0.302 13.077,2.317c3.856,1.932 6.791,5.481 8.114,9.577c-2.388,-2.077 -5.989,-2.849 -9.02,-2.048c-0.144,0.969 0.153,1.889 0.627,2.733c-4.104,0.489 -8.368,-1.074 -10.842,-4.455c1.798,0.815 3.678,1.923 5.74,1.52c1.631,-0.331 3.386,-1.031 4.282,-2.518c0.595,-1.136 -0.546,-2.134 -1.357,-2.752c-3.202,-2.172 -6.981,-3.208 -10.621,-4.374Zm-42.86,1.238c0.844,0.1 1.856,0.043 2.427,0.815c3.755,4.801 9.759,7.175 15.596,8.22c4.45,0.911 9.006,1.011 13.533,0.882c-7.448,1.904 -15.605,1.54 -22.712,-1.511c-3.185,-1.367 -6.163,-3.414 -8.206,-6.249c-0.484,-0.613 -0.479,-1.433 -0.638,-2.157Z" style="fill:#e0e2ff;fill-rule:nonzero;"/><path d="M2059.15,1986.04c-1.362,-2.201 -1.827,-5.007 -1.17,-7.511c0.446,2.869 1.477,5.837 3.827,7.703c2.902,2.369 6.872,2.868 10.498,2.58c5.122,-0.504 10.262,-1.444 15.428,-1.017c2.402,0.244 4.416,1.88 5.543,3.957c1.012,1.904 2.044,3.855 2.561,5.961c0.422,2.546 -1.75,4.402 -2.283,6.738c-0.997,3.966 -0.987,8.186 -2.599,11.994c-0.94,2.244 -3.041,3.683 -4.302,5.716c-2.393,3.779 -3.53,8.168 -4.446,12.498c-0.436,2.028 -1.265,4.167 -3.126,5.295c-3.343,2.062 -7.448,2.201 -10.925,3.961c-3.362,1.554 -6.008,4.191 -8.944,6.374c-2.302,1.711 -5.405,1.75 -8.042,0.872c-2.149,-0.729 -4.46,-1.166 -6.695,-0.551c-2.015,0.206 -3.899,1.606 -5.952,1.074c-2.613,-0.796 -2.848,-4.158 -5.155,-5.338c-2.345,-1.18 -5.026,-1.194 -7.558,-1.654c-1.175,-0.192 -2.379,-0.806 -2.906,-1.924c-0.691,-1.615 -0.619,-3.481 -1.487,-5.025c-2.091,-3.271 -6.599,-3.937 -8.493,-7.391c-0.94,-1.63 -0.681,-3.582 -0.053,-5.27c0.667,-1.831 0.859,-4.129 -0.503,-5.702c-1.521,-1.669 -3.923,-1.966 -6.053,-2.143c2.278,-3.127 3.573,-6.83 4.374,-10.585c0.436,-2.225 1.717,-4.489 4.043,-5.127c3.175,-0.887 6.958,-2.182 10.004,-0.278c3.539,2.791 2.944,8.7 -0.063,11.673c-2.115,1.665 -5.318,2.211 -7.75,0.935c-1.482,-0.801 -1.645,-2.642 -1.41,-4.128c1.041,0.709 1.808,1.898 3.127,2.134c1.046,-0.259 2.58,-0.845 2.537,-2.13c-0.662,-1.856 -2.944,-3.156 -4.829,-2.273c-2.091,0.997 -4.24,2.733 -4.547,5.174c0.054,2.739 2.935,4.226 5.372,4.297c4.004,0.02 7.491,-2.407 10.296,-5.04c-0.542,7.721 -0.077,15.869 3.568,22.856c1.808,3.559 5.28,6.048 9.14,6.935c7.76,1.832 15.889,0.508 23.341,-2.014c4.479,-1.478 8.829,-3.564 12.44,-6.642c1.789,-1.626 3.132,-3.665 4.446,-5.679c3.496,-5.568 6.234,-11.592 8.416,-17.787c1.463,-4.475 2.537,-9.553 0.624,-14.056c-1.305,-3.098 -4.772,-4.403 -7.88,-4.787c-3.918,-0.638 -7.807,0.921 -11.72,0.312c-0.777,1.333 -0.734,3.29 0.748,4.115c2.599,1.429 5.697,1.064 8.551,1.237c-5.304,2.12 -11.548,2.964 -16.895,0.523c-4.744,-2.024 -8.345,-6.268 -9.947,-11.126c2.235,3.241 4.565,6.834 8.421,8.292c1.828,0.594 4.144,1.04 5.803,-0.197c1.069,-1.088 -0.125,-2.479 -0.667,-3.505c-2.631,-0.634 -5.236,-1.976 -6.708,-4.326Zm35.766,6.417c0.802,-0.59 1.77,-0.883 2.686,-1.252c-0.379,0.887 -0.734,1.985 -1.784,2.254c-0.705,0.067 -1.007,-0.269 -0.902,-1.002Zm-0.441,12.488c1.549,-0.6 3.237,-0.115 4.853,-0.331c-1.179,1.232 -2.997,2.508 -4.747,1.683c-0.037,-0.451 -0.073,-0.901 -0.106,-1.352Z" style="fill:#e0e2ff;fill-rule:nonzero;"/><path d="M2034.47,2009.74c2.192,-1.697 5.098,-2.076 7.793,-2.196c-2.004,0.676 -4.426,1.166 -5.327,3.357c0.791,1.074 2.809,0.389 3.169,1.76c0.053,2.892 -2.278,4.968 -3.146,7.558c2.374,-1.635 5.065,-3.146 6.58,-5.692c0.413,-0.787 -0.81,-1.036 -1.16,-1.502c1.247,-2.018 3.764,-2.738 6.014,-2.686c1.716,-0.052 3.582,0.514 4.609,1.981c-1.665,-0.379 -3.487,-1.712 -5.171,-0.719c-0.417,1.16 -0.158,2.475 -0.647,3.635c-1.012,2.82 -3.616,4.714 -6.326,5.755c-0.973,0.393 -2.301,1.261 -1.946,2.479c1.697,0.101 3.424,0.298 5.117,0.034c1.812,-0.283 2.666,-2.283 4.44,-2.643c3.214,-0.872 7.083,0.465 8.748,3.434c-1.712,-0.83 -3.42,-2.264 -5.448,-1.87c-2.005,0.436 -2.834,2.498 -4.034,3.918c-1.084,0.283 -2.143,-0.379 -3.227,-0.23c-1.453,0.331 -2.733,1.213 -4.23,1.362c-2.609,0.283 -5.059,-1.429 -7.673,-0.825c-1.401,0.437 -1.314,2.139 -1.434,3.324c-1.564,-4.667 -2.23,-9.669 -1.784,-14.575c1.132,1.147 1.107,2.782 1.453,4.249c0.206,0.936 1.367,0.96 2,0.442c1.673,-1.242 2.748,-3.324 2.604,-5.429c-2.115,-0.619 -2.633,-3.544 -0.974,-4.921Zm-26.995,10.45c1.362,-1.117 4.014,-0.297 4.091,1.597c0.178,1.29 0.12,2.969 -1.256,3.588c-2.969,1.616 -6.897,2.321 -8.465,5.688c0.326,-4.163 2.043,-8.489 5.63,-10.873Zm78.32,5.036c0.599,-1.218 2.182,-0.959 3.155,-0.389c1.238,0.696 2.556,1.228 4.009,1.228c-1.803,1.117 -4.047,2.014 -6.167,1.352c-0.907,-0.254 -1.659,-1.328 -0.997,-2.191Zm-67.409,12.07c1.62,-0.565 3.405,0.916 2.997,2.634c0.053,1.314 -1.06,2.091 -2.168,2.474c-2.484,1.041 -5.457,1.765 -6.838,4.326c0.22,-3.885 2.479,-7.697 6.009,-9.434Zm48.427,10.292c-0.657,-1.443 0.614,-3.112 2.167,-2.647c1.635,0.369 1.526,2.297 1.736,3.601c0.125,1.511 0.773,2.892 1.554,4.163c-2.412,-0.844 -4.397,-2.824 -5.457,-5.117Zm-37.857,0.25c0.839,-1.045 2.268,-1.511 3.577,-1.204c1.617,0.878 1.962,3.669 0.298,4.685c-2.302,1.789 -5.65,2.859 -6.441,6c-0.23,-3.309 0.436,-6.853 2.566,-9.481Zm17.206,3.927c1.837,-1.227 4.408,1.137 3.147,3.041c-1.669,2.177 -4.528,3.462 -5.213,6.344c-0.547,-3.174 -0.288,-6.953 2.066,-9.385Z" style="fill:#e0e2ff;fill-rule:nonzero;"/></svg>